<svg version="1.1" xmlns="http://www.w3.org/2000/svg" viewBox="0 0 1568.0177105688772 1157.865515027288" width="1568.0177105688772" height="1157.865515027288"><!-- svg-source:excalidraw --><metadata></metadata><defs><style class="style-fonts">
      </style></defs><rect x="0" y="0" width="1568.0177105688772" height="1157.865515027288" fill="#ffffff"></rect><g stroke-linecap="round"><g transform="translate(28.3872692975051 40.64544882917562) rotate(0 0 10.215149609725131)"><path d="M0 0 C0.91 8.02, -0.06 16.48, 0 20.43 M0 0 C0.25 5.68, 0.48 10.77, 0 20.43" stroke="#000" stroke-width="1" fill="none"></path></g></g><mask></mask><g stroke-linecap="round"><g transform="translate(10 48.81756851695582) rotate(0 18.387269297505327 0)"><path d="M0 0 C9.89 0.17, 19.56 0.3, 36.77 0 M0 0 C11.58 0.09, 22.05 -0.26, 36.77 0" stroke="#000" stroke-width="1" fill="none"></path></g></g><mask></mask><g stroke-linecap="round"><g transform="translate(10 76.3984724632137) rotate(0 9.19363464875255 -7.661362207293905)"><path d="M0 0 C4.84 -4.12, 10.54 -8.33, 18.39 -15.32 M0 0 C6.78 -6.03, 13.84 -12.16, 18.39 -15.32" stroke="#000" stroke-width="1" fill="none"></path></g></g><mask></mask><g stroke-linecap="round"><g transform="translate(28.3872692975051 61.07574804862588) rotate(0 8.172119687780196 7.661362207293905)"><path d="M0 0 C5.14 5.24, 11.1 10.52, 16.34 15.32 M0 0 C5.47 5.02, 11.78 11.12, 16.34 15.32" stroke="#000" stroke-width="1" fill="none"></path></g></g><mask></mask><g stroke-linecap="round" transform="translate(13.06454488291729 10) rotate(0 15.32272441458781 15.32272441458781)"><path d="M18.63 0.18 C21.61 0.79, 25.12 3.87, 27.19 6.48 C29.26 9.08, 31.08 12.63, 31.04 15.81 C31 18.98, 29.27 23.01, 26.94 25.53 C24.61 28.04, 20.42 30.49, 17.05 30.89 C13.68 31.29, 9.54 29.7, 6.75 27.94 C3.95 26.18, 1.2 23.39, 0.3 20.33 C-0.6 17.28, 0.02 12.64, 1.34 9.62 C2.67 6.59, 5.15 3.61, 8.25 2.17 C11.34 0.73, 17.76 1.08, 19.9 0.98 C22.05 0.88, 21.28 1.37, 21.1 1.58 M13.2 -0.3 C16.48 -0.99, 21.28 0.18, 24.11 2.03 C26.94 3.87, 29.37 7.64, 30.2 10.77 C31.03 13.91, 30.3 17.76, 29.08 20.84 C27.87 23.91, 25.76 27.54, 22.89 29.23 C20.03 30.92, 15.19 31.71, 11.87 30.98 C8.55 30.25, 4.98 27.56, 2.97 24.87 C0.95 22.19, -0.27 18.11, -0.21 14.88 C-0.16 11.64, 0.96 7.86, 3.29 5.47 C5.62 3.09, 12.04 1.39, 13.77 0.57 C15.5 -0.25, 13.82 0.42, 13.67 0.54" stroke="#1e1e1e" stroke-width="2" fill="none"></path></g><g transform="translate(11.640458476086678 73.84468506078247) rotate(0 17.249542236328125 9.397937640947134)"><text x="0" y="13.811201495773746" font-family="Helvetica, Segoe UI Emoji" font-size="16.34423937556029px" fill="#1e1e1e" text-anchor="start" style="white-space: pre;" direction="ltr" dominant-baseline="alphabetic">User</text></g><g stroke-linecap="round"><g transform="translate(28.3872692975051 1095.8704035137866) rotate(0 0 10.215149609725188)"><path d="M0 0 C-0.16 7.55, -0.65 16.74, 0 20.43 M0 0 C-0.28 7.64, 0.31 15.37, 0 20.43" stroke="#000" stroke-width="1" fill="none"></path></g></g><mask></mask><g stroke-linecap="round"><g transform="translate(10 1104.0425232015668) rotate(0 18.387269297505327 0)"><path d="M0 0 C8.79 0.88, 19.8 -0.49, 36.77 0 M0 0 C14.24 -0.2, 27.5 -0.32, 36.77 0" stroke="#000" stroke-width="1" fill="none"></path></g></g><mask></mask><g stroke-linecap="round"><g transform="translate(10 1131.6234271478247) rotate(0 9.19363464875255 -7.661362207293905)"><path d="M0 0 C5.64 -4.61, 10.35 -8.45, 18.39 -15.32 M0 0 C4.56 -4.4, 10.19 -7.93, 18.39 -15.32" stroke="#000" stroke-width="1" fill="none"></path></g></g><mask></mask><g stroke-linecap="round"><g transform="translate(28.3872692975051 1116.3007027332371) rotate(0 8.172119687780196 7.661362207293905)"><path d="M0 0 C7.06 5.44, 12.16 12.44, 16.34 15.32 M0 0 C4.51 4, 8.31 7.57, 16.34 15.32" stroke="#000" stroke-width="1" fill="none"></path></g></g><mask></mask><g stroke-linecap="round" transform="translate(13.06454488291729 1065.224954684611) rotate(0 15.32272441458781 15.322724414587753)"><path d="M17.71 0.75 C20.88 1.2, 25.13 3.28, 27.27 5.81 C29.41 8.33, 30.58 12.62, 30.56 15.92 C30.54 19.22, 29.18 23.12, 27.15 25.59 C25.12 28.06, 21.7 30.22, 18.35 30.74 C15.01 31.26, 10.04 30.48, 7.08 28.69 C4.13 26.9, 1.62 23.14, 0.61 20.01 C-0.4 16.89, -0.12 12.89, 1.02 9.96 C2.16 7.02, 4.58 3.99, 7.46 2.42 C10.34 0.85, 16.38 0.86, 18.3 0.53 C20.21 0.2, 19 0.18, 18.95 0.44 M16.9 0.26 C20.02 0.35, 24.11 2.54, 26.28 4.98 C28.46 7.42, 29.65 11.59, 29.95 14.92 C30.26 18.25, 29.91 22.38, 28.12 24.95 C26.33 27.51, 22.58 29.73, 19.2 30.34 C15.82 30.95, 10.84 30.03, 7.82 28.61 C4.8 27.18, 2.14 24.68, 1.06 21.8 C-0.01 18.92, 0.27 14.65, 1.37 11.32 C2.46 7.99, 4.9 3.71, 7.63 1.83 C10.36 -0.06, 16.14 0.24, 17.75 0 C19.36 -0.23, 17.3 0.19, 17.28 0.4" stroke="#1e1e1e" stroke-width="2" fill="none"></path></g><g transform="translate(11.640458476086678 1129.0696397453935) rotate(0 17.249542236328125 9.397937640947191)"><text x="0" y="13.811201495773746" font-family="Helvetica, Segoe UI Emoji" font-size="16.34423937556029px" fill="#1e1e1e" text-anchor="start" style="white-space: pre;" direction="ltr" dominant-baseline="alphabetic">User</text></g><g stroke-linecap="round" transform="translate(289.80688652149547 15.107574804862452) rotate(0 111.8558882264906 33.19923623160685)"><path d="M0 0 C46.17 1.53, 93.63 0.74, 223.71 0 M0 0 C71.95 1.1, 142.68 1.46, 223.71 0 M223.71 0 C224.19 15.86, 225.01 36.74, 223.71 66.4 M223.71 0 C223.29 23.2, 223.84 48.04, 223.71 66.4 M223.71 66.4 C133.92 69.51, 46.94 68.53, 0 66.4 M223.71 66.4 C157.29 66.17, 91.09 65.51, 0 66.4 M0 66.4 C0.29 47.8, -1.56 33.14, 0 0 M0 66.4 C-0.69 51.12, 0.32 34.16, 0 0" stroke="#1e1e1e" stroke-width="2" fill="none"></path></g><g transform="translate(300.39553994574 38.90887339552205) rotate(0 101.2672348022461 9.397937640947134)"><text x="101.2672348022461" y="13.811201495773746" font-family="Helvetica, Segoe UI Emoji" font-size="16.34423937556029px" fill="#000" text-anchor="middle" style="white-space: pre;" direction="ltr" dominant-baseline="alphabetic">Spotify Authorization Server</text></g><g stroke-linecap="round" transform="translate(289.80688652149547 1070.3325294894737) rotate(0 111.8558882264906 33.19923623160685)"><path d="M0 0 C86.25 -1.73, 171.21 0.21, 223.71 0 M0 0 C77.55 -1.57, 155.44 -1.59, 223.71 0 M223.71 0 C225.24 15.05, 224.35 26.44, 223.71 66.4 M223.71 0 C224.51 17.11, 224.47 32.14, 223.71 66.4 M223.71 66.4 C138.87 68.39, 53.27 67.18, 0 66.4 M223.71 66.4 C137.75 67.02, 53.03 66.82, 0 66.4 M0 66.4 C-0.83 52.03, 2.01 34.73, 0 0 M0 66.4 C-0.45 42.09, -1.15 18.16, 0 0" stroke="#1e1e1e" stroke-width="2" fill="none"></path></g><g transform="translate(300.39553994574 1094.1338280801333) rotate(0 101.2672348022461 9.397937640947191)"><text x="101.2672348022461" y="13.811201495773746" font-family="Helvetica, Segoe UI Emoji" font-size="16.34423937556029px" fill="#000" text-anchor="middle" style="white-space: pre;" direction="ltr" dominant-baseline="alphabetic">Spotify Authorization Server</text></g><g stroke-linecap="round" transform="translate(680.536359093483 15.107574804862452) rotate(0 76.61362207293905 33.19923623160685)"><path d="M0 0 C38.12 -1.46, 76.12 -1.53, 153.23 0 M0 0 C48.16 0.31, 98.82 0.3, 153.23 0 M153.23 0 C152.28 22.99, 154.54 48.76, 153.23 66.4 M153.23 0 C154.62 23.74, 154.05 47.75, 153.23 66.4 M153.23 66.4 C94.96 68.06, 33.52 65.93, 0 66.4 M153.23 66.4 C97.78 66.32, 44.31 66.3, 0 66.4 M0 66.4 C0.66 44.03, -1.49 18.89, 0 0 M0 66.4 C-0.46 49.42, 0.68 32.08, 0 0" stroke="#1e1e1e" stroke-width="2" fill="none"></path></g><g transform="translate(724.4500605121248 38.90887339552205) rotate(0 32.699920654296875 9.397937640947134)"><text x="32.699920654296875" y="13.811201495773746" font-family="Helvetica, Segoe UI Emoji" font-size="16.34423937556029px" fill="#000" text-anchor="middle" style="white-space: pre;" direction="ltr" dominant-baseline="alphabetic">Frontend</text></g><g stroke-linecap="round" transform="translate(680.536359093483 1070.3325294894737) rotate(0 76.61362207293905 33.19923623160685)"><path d="M0 0 C41.7 -0.07, 82.95 -1.26, 153.23 0 M0 0 C55.41 -0.75, 108.98 -1.39, 153.23 0 M153.23 0 C154.83 20.25, 151.86 38.44, 153.23 66.4 M153.23 0 C154.28 18.49, 153.58 38.79, 153.23 66.4 M153.23 66.4 C98.15 67.09, 41.44 64.47, 0 66.4 M153.23 66.4 C116.84 66.28, 78.98 66.07, 0 66.4 M0 66.4 C-0.47 40.41, -0.51 15.34, 0 0 M0 66.4 C-0.58 45.24, -0.68 22.4, 0 0" stroke="#1e1e1e" stroke-width="2" fill="none"></path></g><g transform="translate(724.4500605121248 1094.1338280801333) rotate(0 32.699920654296875 9.397937640947191)"><text x="32.699920654296875" y="13.811201495773746" font-family="Helvetica, Segoe UI Emoji" font-size="16.34423937556029px" fill="#000" text-anchor="middle" style="white-space: pre;" direction="ltr" dominant-baseline="alphabetic">Frontend</text></g><g stroke-linecap="round" transform="translate(1266.8859466917093 15.107574804862452) rotate(0 76.61362207293905 33.19923623160685)"><path d="M0 0 C42.59 2.81, 83.99 2.43, 153.23 0 M0 0 C47.64 1.4, 96.68 1.38, 153.23 0 M153.23 0 C152.36 26.41, 152.59 53.75, 153.23 66.4 M153.23 0 C154.04 16.73, 152.97 33.9, 153.23 66.4 M153.23 66.4 C96.13 66.69, 40.17 66.55, 0 66.4 M153.23 66.4 C95.54 66.84, 36.46 66.93, 0 66.4 M0 66.4 C0.95 51.46, 0.9 34.76, 0 0 M0 66.4 C-0.29 39.96, -0.34 12.81, 0 0" stroke="#1e1e1e" stroke-width="2" fill="none"></path></g><g transform="translate(1311.705196206054 38.90887339552205) rotate(0 31.79437255859375 9.397937640947134)"><text x="31.79437255859375" y="13.811201495773746" font-family="Helvetica, Segoe UI Emoji" font-size="16.34423937556029px" fill="#000" text-anchor="middle" style="white-space: pre;" direction="ltr" dominant-baseline="alphabetic">Backend</text></g><g stroke-linecap="round" transform="translate(1266.8859466917093 1070.3325294894737) rotate(0 76.61362207293905 33.19923623160685)"><path d="M0 0 C57.23 -2.35, 112.94 -1.26, 153.23 0 M0 0 C56.27 -1.8, 111.51 -1.06, 153.23 0 M153.23 0 C152.23 21.8, 154.87 44.11, 153.23 66.4 M153.23 0 C153.61 20.71, 152.3 40.16, 153.23 66.4 M153.23 66.4 C98.89 66.68, 42.51 68.71, 0 66.4 M153.23 66.4 C113.87 65.38, 74.97 66.13, 0 66.4 M0 66.4 C1.78 43.92, 0.4 22.27, 0 0 M0 66.4 C0.04 46.37, 0.66 26.55, 0 0" stroke="#1e1e1e" stroke-width="2" fill="none"></path></g><g transform="translate(1311.705196206054 1094.1338280801333) rotate(0 31.79437255859375 9.397937640947191)"><text x="31.79437255859375" y="13.811201495773746" font-family="Helvetica, Segoe UI Emoji" font-size="16.34423937556029px" fill="#000" text-anchor="middle" style="white-space: pre;" direction="ltr" dominant-baseline="alphabetic">Backend</text></g><g stroke-linecap="round" transform="translate(1128.9814269604194 618.8229167396207) rotate(0 214.5181418042289 25.53787402431294)"><path d="M0 0 C96.32 1.48, 192 1.44, 429.04 0 M429.04 0 C429.88 10.76, 431.26 20.62, 429.04 51.08 M429.04 51.08 C291.38 52.15, 154.17 53.24, 0 51.08 M0 51.08 C1.64 32.83, 1.5 18.63, 0 0" stroke="#1e1e1e" stroke-width="2.5" fill="none" stroke-dasharray="8 10"></path></g><g transform="translate(1134.1674459619135 634.9628531229864) rotate(0 209.33212280273438 9.397937640947191)"><text x="209.33212280273438" y="13.811201495773746" font-family="Helvetica, Segoe UI Emoji" font-size="16.34423937556029px" fill="#000" text-anchor="middle" style="white-space: pre;" direction="ltr" dominant-baseline="alphabetic">El Client ID y Client Secret se obtienen de la DB (registro)</text></g><g stroke-linecap="round"><g transform="translate(28.3872692975051 96.82877168266396) rotate(0 0 484.19809150097353)"><path d="M0 0 C1.61 382.71, 2.2 764.34, 0 968.4 M0 0 C3.61 288.62, 3.8 576.6, 0 968.4" stroke="#999" stroke-width="1" fill="none"></path></g></g><mask></mask><g stroke-linecap="round"><g transform="translate(401.6627747479861 81.50604726807614) rotate(0 0 494.4132411106987)"><path d="M0 0 C-0.48 318.62, 0.57 637.45, 0 988.83 M0 0 C-1.31 303.52, -1.84 606.54, 0 988.83" stroke="#999" stroke-width="1" fill="none"></path></g></g><mask></mask><g stroke-linecap="round"><g transform="translate(757.1499811664225 81.50604726807614) rotate(0 0 494.4132411106987)"><path d="M0 0 C-1.28 387.23, -1.89 773.08, 0 988.83 M0 0 C2.3 353.32, 2.83 706.87, 0 988.83" stroke="#999" stroke-width="1" fill="none"></path></g></g><mask></mask><g stroke-linecap="round"><g transform="translate(1343.4995687646478 81.50604726807614) rotate(0 0 494.4132411106987)"><path d="M0 0 C3.33 317.12, 3.73 635.39, 0 988.83 M0 0 C-2.35 329.54, -2.38 659.89, 0 988.83" stroke="#999" stroke-width="1" fill="none"></path></g></g><mask></mask><g mask="url(#mask-5QMaEqrw13i0pG5XWwwc0)" stroke-linecap="round"><g transform="translate(31.19405342847631 126.452705550867) rotate(0 361.10654162518426 0)"><path d="M-0.48 0.69 C119.89 0.74, 602.68 0.63, 722.99 0.4 M1.47 0.01 C121.68 -0.32, 602.05 -1.55, 722.45 -1.51" stroke="#1e1e1e" stroke-width="2" fill="none"></path></g><g transform="translate(31.19405342847631 126.452705550867) rotate(0 361.10654162518426 0)"><path d="M698.97 7.07 C708.73 5.32, 716.87 -0.45, 722.45 -1.51 M698.97 7.07 C705.16 5.96, 709.94 3.68, 722.45 -1.51" stroke="#1e1e1e" stroke-width="2" fill="none"></path></g><g transform="translate(31.19405342847631 126.452705550867) rotate(0 361.10654162518426 0)"><path d="M698.95 -10.03 C708.73 -5.51, 716.88 -5, 722.45 -1.51 M698.95 -10.03 C705.26 -7.02, 710.04 -5.17, 722.45 -1.51" stroke="#1e1e1e" stroke-width="2" fill="none"></path></g></g><mask id="mask-5QMaEqrw13i0pG5XWwwc0"><rect x="0" y="0" fill="#fff" width="853.4071366788448" height="226.452705550867"></rect><rect x="252.54903865717642" y="117.05476790991975" fill="#000" width="279.50311279296875" height="18.79587528189433" opacity="1"></rect></mask><g transform="translate(252.54903865717642 117.05476790991975) rotate(0 139.90276408568002 8.99477120484869)"><text x="139.75155639648438" y="13.811201495773746" font-family="Helvetica, Segoe UI Emoji" font-size="16.34423937556029px" fill="#1e1e1e" text-anchor="middle" style="white-space: pre;" direction="ltr" dominant-baseline="alphabetic">Clic en "Conectar con Spotify" (Profile)</text></g><g mask="url(#mask-R-ZFD-xIAPru-SwCfK9DE)" stroke-linecap="round"><g transform="translate(758.6822536078816 181.61451344338298) rotate(0 290.1102489161949 0)"><path d="M-0.79 -0.7 C95.91 -0.89, 484.05 -1.01, 581 -0.73 M0.99 1.54 C97.54 1.46, 483.88 0.82, 580.47 0.42" stroke="#1e1e1e" stroke-width="2" fill="none"></path></g><g transform="translate(758.6822536078816 181.61451344338298) rotate(0 290.1102489161949 0)"><path d="M557 9.04 C564.36 7.35, 572.88 4.07, 580.47 0.42 M557 9.04 C566.67 5.14, 574.93 1.94, 580.47 0.42" stroke="#1e1e1e" stroke-width="2" fill="none"></path></g><g transform="translate(758.6822536078816 181.61451344338298) rotate(0 290.1102489161949 0)"><path d="M556.95 -8.06 C564.39 -3.51, 572.93 -0.55, 580.47 0.42 M556.95 -8.06 C566.59 -5.45, 574.87 -2.13, 580.47 0.42" stroke="#1e1e1e" stroke-width="2" fill="none"></path></g></g><mask id="mask-R-ZFD-xIAPru-SwCfK9DE"><rect x="0" y="0" fill="#fff" width="1438.902751440272" height="281.614513443383"></rect><rect x="845.8232642428266" y="172.21657580243573" fill="#000" width="405.9384765625" height="18.79587528189433" opacity="1"></rect></mask><g transform="translate(845.8232642428266 172.21657580243573) rotate(0 202.96407747641206 9.719458368420533)"><text x="202.96923828125" y="13.811201495773746" font-family="Helvetica, Segoe UI Emoji" font-size="16.34423937556029px" fill="#1e1e1e" text-anchor="middle" style="white-space: pre;" direction="ltr" dominant-baseline="alphabetic">GET /api/v1/spoti/client-id (Solicita Client ID del usuario)</text></g><g mask="url(#mask-W70Y--3A3fdTxgmAMvSjV)" stroke-linecap="round"><g transform="translate(1341.9672963231887 236.77632133589896) rotate(0 -290.11024891619536 0)"><path d="M0.7 0.97 C-96.2 1.22, -483.91 0.98, -580.58 0.72" stroke="#1e1e1e" stroke-width="2.5" fill="none" stroke-dasharray="1.5 8"></path></g><g transform="translate(1341.9672963231887 236.77632133589896) rotate(0 -290.11024891619536 0)"><path d="M-557.08 -7.8 C-564.09 -5.15, -573.1 -0.02, -580.58 0.72" stroke="#1e1e1e" stroke-width="2.5" fill="none" stroke-dasharray="1.5 6"></path></g><g transform="translate(1341.9672963231887 236.77632133589896) rotate(0 -290.11024891619536 0)"><path d="M-557.1 9.31 C-564 5.7, -573 4.59, -580.58 0.72" stroke="#1e1e1e" stroke-width="2.5" fill="none" stroke-dasharray="1.5 6"></path></g></g><mask id="mask-W70Y--3A3fdTxgmAMvSjV"><rect x="0" y="0" fill="#fff" width="2022.187794155579" height="336.77632133589896"></rect><rect x="1020.5294412058211" y="227.3783836949517" fill="#000" width="62.65521240234375" height="18.79587528189433" opacity="1"></rect></mask><g transform="translate(1020.5294412058211 227.3783836949517) rotate(0 31.494705442339637 10.295909777632119)"><text x="31.327606201171875" y="13.811201495773746" font-family="Helvetica, Segoe UI Emoji" font-size="16.34423937556029px" fill="#1e1e1e" text-anchor="middle" style="white-space: pre;" direction="ltr" dominant-baseline="alphabetic">Client ID</text></g><g mask="url(#mask-yOvNckumghRSDk0neoMIR)" stroke-linecap="round"><g transform="translate(757.6607386469086 291.42737174792865) rotate(0 34.83920030859781 10.825771620782461)"><path d="M0.85 -0.57 C11.22 -2.39, 51.81 -15.38, 61.83 -10.18 C71.85 -4.97, 71.3 25.32, 60.98 30.66 C50.67 36, 9.88 23.33, -0.07 21.85 M-0.16 1.74 C10.08 0.03, 50.29 -13.88, 60.9 -8.89 C71.5 -3.89, 73.66 26.37, 63.45 31.72 C53.23 37.06, 10.18 24.72, -0.4 23.17" stroke="#1e1e1e" stroke-width="2" fill="none"></path></g><g transform="translate(757.6607386469086 291.42737174792865) rotate(0 34.83920030859781 10.825771620782461)"><path d="M24.36 19.73 C16.75 20.88, 10.24 20.39, -0.4 23.17 M24.36 19.73 C18.15 21.01, 11.09 22.58, -0.4 23.17" stroke="#1e1e1e" stroke-width="2" fill="none"></path></g><g transform="translate(757.6607386469086 291.42737174792865) rotate(0 34.83920030859781 10.825771620782461)"><path d="M20.78 36.45 C14.04 33.07, 8.49 28.07, -0.4 23.17 M20.78 36.45 C15.65 33.4, 9.52 30.65, -0.4 23.17" stroke="#1e1e1e" stroke-width="2" fill="none"></path></g></g><mask id="mask-yOvNckumghRSDk0neoMIR"><rect x="0" y="0" fill="#fff" width="919.4623937857459" height="432.2879701868294"></rect><rect x="741.3264934181261" y="274.0796172247492" fill="#000" width="170.70016479492188" height="56.38762584568299" opacity="1"></rect></mask><g transform="translate(741.3264934181261 274.0796172247492) rotate(0 51.1734455373803 28.173526143961908)"><text x="85.35008239746094" y="13.811201495773746" font-family="Helvetica, Segoe UI Emoji" font-size="16.34423937556029px" fill="#1e1e1e" text-anchor="middle" style="white-space: pre;" direction="ltr" dominant-baseline="alphabetic">Construye URL de</text><text x="85.35008239746094" y="32.60707677766808" font-family="Helvetica, Segoe UI Emoji" font-size="16.34423937556029px" fill="#1e1e1e" text-anchor="middle" style="white-space: pre;" direction="ltr" dominant-baseline="alphabetic">Autorización (Scopes,</text><text x="85.35008239746094" y="51.4029520595624" font-family="Helvetica, Segoe UI Emoji" font-size="16.34423937556029px" fill="#1e1e1e" text-anchor="middle" style="white-space: pre;" direction="ltr" dominant-baseline="alphabetic">Redirect URI, Client ID)</text></g><g mask="url(#mask-rqvasyye7f4HCcc1T1Nzy)" stroke-linecap="round"><g transform="translate(755.6177087249634 377.74538595010654) rotate(0 -174.6790583263005 0)"><path d="M-0.82 -0.5 C-59.23 -0.35, -292.41 0.26, -350.45 0.4 M0.95 -1.8 C-57.11 -1.99, -289.87 -1.51, -348.31 -1.51" stroke="#1e1e1e" stroke-width="2" fill="none"></path></g><g transform="translate(755.6177087249634 377.74538595010654) rotate(0 -174.6790583263005 0)"><path d="M-324.83 -10.09 C-332.79 -9.47, -338.39 -4.61, -348.31 -1.51 M-324.83 -10.09 C-333.18 -6.71, -341.07 -4.1, -348.31 -1.51" stroke="#1e1e1e" stroke-width="2" fill="none"></path></g><g transform="translate(755.6177087249634 377.74538595010654) rotate(0 -174.6790583263005 0)"><path d="M-324.81 7.02 C-332.71 2.46, -338.32 2.15, -348.31 -1.51 M-324.81 7.02 C-333.09 4.73, -340.99 1.67, -348.31 -1.51" stroke="#1e1e1e" stroke-width="2" fill="none"></path></g></g><mask id="mask-rqvasyye7f4HCcc1T1Nzy"><rect x="0" y="0" fill="#fff" width="1204.9758253775647" height="477.74538595010654"></rect><rect x="511.4617903522758" y="368.3474483091593" fill="#000" width="138.95372009277344" height="18.79587528189433" opacity="1"></rect></mask><g transform="translate(511.46179035227624 368.3474483091593) rotate(0 69.40582712372293 8.676579527691047)"><text x="69.47686004638672" y="13.811201495773746" font-family="Helvetica, Segoe UI Emoji" font-size="16.34423937556029px" fill="#1e1e1e" text-anchor="middle" style="white-space: pre;" direction="ltr" dominant-baseline="alphabetic">Redirige al Usuario</text></g><g mask="url(#mask-BGyzwsucS1oPdJiyzNs1f)" stroke-linecap="round"><g transform="translate(397.620638829997 432.9071938426225) rotate(0 -182.42590619495513 0)"><path d="M0.27 0.38 C-60.44 0.51, -304.41 1.19, -365.37 1.19 M-1.05 -0.47 C-61.87 -0.68, -305.66 -0.09, -366.59 -0.31" stroke="#1e1e1e" stroke-width="2" fill="none"></path></g><g transform="translate(397.620638829997 432.9071938426225) rotate(0 -182.42590619495513 0)"><path d="M-343.09 -8.85 C-347.35 -7.88, -350.9 -6.29, -366.59 -0.31 M-343.09 -8.85 C-351.6 -6.58, -359.09 -2.87, -366.59 -0.31" stroke="#1e1e1e" stroke-width="2" fill="none"></path></g><g transform="translate(397.620638829997 432.9071938426225) rotate(0 -182.42590619495513 0)"><path d="M-343.1 8.25 C-347.41 5.65, -350.96 3.67, -366.59 -0.31 M-343.1 8.25 C-351.5 4.87, -358.99 2.94, -366.59 -0.31" stroke="#1e1e1e" stroke-width="2" fill="none"></path></g></g><mask id="mask-BGyzwsucS1oPdJiyzNs1f"><rect x="0" y="0" fill="#fff" width="862.4724512199073" height="532.9071938426225"></rect><rect x="142.530456511995" y="414.11131856072825" fill="#000" width="145.32855224609375" height="37.59175056378866" opacity="1"></rect></mask><g transform="translate(142.530456511995 414.11131856072825) rotate(0 71.9316350886736 19.1329819291484)"><text x="72.66427612304688" y="13.811201495773746" font-family="Helvetica, Segoe UI Emoji" font-size="16.34423937556029px" fill="#1e1e1e" text-anchor="middle" style="white-space: pre;" direction="ltr" dominant-baseline="alphabetic">Muestra Pantalla de</text><text x="72.66427612304688" y="32.60707677766808" font-family="Helvetica, Segoe UI Emoji" font-size="16.34423937556029px" fill="#1e1e1e" text-anchor="middle" style="white-space: pre;" direction="ltr" dominant-baseline="alphabetic">Consentimiento</text></g><g mask="url(#mask-bJQmjHMwZpdEV5OJC0kmT)" stroke-linecap="round"><g transform="translate(31.054565771066336 488.0690017351385) rotate(0 182.42590619495513 0)"><path d="M-0.64 0.36 C60.13 0.18, 303.31 0.25, 364.08 0.08 M1.23 -0.49 C62.43 0.04, 305.52 1.53, 366.39 1.66" stroke="#1e1e1e" stroke-width="2" fill="none"></path></g><g transform="translate(31.054565771066336 488.0690017351385) rotate(0 182.42590619495513 0)"><path d="M342.86 10.1 C349.43 6.78, 355 4.5, 366.39 1.66 M342.86 10.1 C348.82 8.84, 354.89 6.74, 366.39 1.66" stroke="#1e1e1e" stroke-width="2" fill="none"></path></g><g transform="translate(31.054565771066336 488.0690017351385) rotate(0 182.42590619495513 0)"><path d="M342.94 -7 C349.65 -5.93, 355.21 -3.82, 366.39 1.66 M342.94 -7 C348.81 -4.11, 354.86 -2.05, 366.39 1.66" stroke="#1e1e1e" stroke-width="2" fill="none"></path></g></g><mask id="mask-bJQmjHMwZpdEV5OJC0kmT"><rect x="0" y="0" fill="#fff" width="495.90637816097666" height="588.0690017351385"></rect><rect x="136.2764238092832" y="478.67106409419125" fill="#000" width="154.40809631347656" height="18.79587528189433" opacity="1"></rect></mask><g transform="translate(136.2764238092832 478.67106409419125) rotate(0 77.65614610587727 9.980548118798879)"><text x="77.20404815673828" y="13.811201495773746" font-family="Helvetica, Segoe UI Emoji" font-size="16.34423937556029px" fill="#1e1e1e" text-anchor="middle" style="white-space: pre;" direction="ltr" dominant-baseline="alphabetic">Autoriza la aplicación</text></g><g mask="url(#mask-IN7731ACuvFRz4jnNzvWZ)" stroke-linecap="round"><g transform="translate(403.1950471894447 543.2308096276543) rotate(0 174.67905832630072 0)"><path d="M-0.83 -0.68 C57.43 -0.63, 290.44 0.1, 348.85 0.39 M0.93 1.58 C59.06 1.25, 289.62 -1.14, 347.63 -1.53" stroke="#1e1e1e" stroke-width="2" fill="none"></path></g><g transform="translate(403.1950471894447 543.2308096276543) rotate(0 174.67905832630072 0)"><path d="M324.21 7.23 C328.6 4.47, 335.91 3.66, 347.63 -1.53 M324.21 7.23 C334.06 2.69, 342.08 1.15, 347.63 -1.53" stroke="#1e1e1e" stroke-width="2" fill="none"></path></g><g transform="translate(403.1950471894447 543.2308096276543) rotate(0 174.67905832630072 0)"><path d="M324.06 -9.88 C328.5 -8.59, 335.84 -5.37, 347.63 -1.53 M324.06 -9.88 C334.07 -7.81, 342.14 -2.74, 347.63 -1.53" stroke="#1e1e1e" stroke-width="2" fill="none"></path></g></g><mask id="mask-IN7731ACuvFRz4jnNzvWZ"><rect x="0" y="0" fill="#fff" width="852.5531638420459" height="643.2308096276543"></rect><rect x="468.66824156310804" y="524.43493434576" fill="#000" width="218.41172790527344" height="37.59175056378866" opacity="1"></rect></mask><g transform="translate(468.6682415631085 524.43493434576) rotate(0 108.53263683691625 18.818978944074047)"><text x="109.20586395263672" y="13.811201495773746" font-family="Helvetica, Segoe UI Emoji" font-size="16.34423937556029px" fill="#1e1e1e" text-anchor="middle" style="white-space: pre;" direction="ltr" dominant-baseline="alphabetic">Redirige a</text><text x="109.20586395263672" y="32.60707677766808" font-family="Helvetica, Segoe UI Emoji" font-size="16.34423937556029px" fill="#1e1e1e" text-anchor="middle" style="white-space: pre;" direction="ltr" dominant-baseline="alphabetic">/callback?code=AUTH_CODE</text></g><g mask="url(#mask-H8rPvCApav_RWUrhGhnn_)" stroke-linecap="round"><g transform="translate(758.6822536078816 598.3926175201705) rotate(0 290.1102489161949 0)"><path d="M0.24 1.04 C97.14 1.13, 484.04 1.35, 580.87 0.98 M-1.09 0.53 C95.75 0.28, 483.25 -0.46, 580.27 -0.63" stroke="#1e1e1e" stroke-width="2" fill="none"></path></g><g transform="translate(758.6822536078816 598.3926175201705) rotate(0 290.1102489161949 0)"><path d="M556.79 7.97 C564.53 6.8, 570.48 5.2, 580.27 -0.63 M556.79 7.97 C561.75 5.68, 566.54 4.38, 580.27 -0.63" stroke="#1e1e1e" stroke-width="2" fill="none"></path></g><g transform="translate(758.6822536078816 598.3926175201705) rotate(0 290.1102489161949 0)"><path d="M556.76 -9.13 C564.57 -5.9, 570.52 -3.1, 580.27 -0.63 M556.76 -9.13 C561.7 -7.94, 566.49 -5.76, 580.27 -0.63" stroke="#1e1e1e" stroke-width="2" fill="none"></path></g></g><mask id="mask-H8rPvCApav_RWUrhGhnn_"><rect x="0" y="0" fill="#fff" width="1438.902751440272" height="698.3926175201705"></rect><rect x="868.0832434908734" y="579.5967422382762" fill="#000" width="361.41851806640625" height="37.59175056378866" opacity="1"></rect></mask><g transform="translate(868.0832434908734 579.5967422382762) rotate(0 180.490126380525 19.07666700696359)"><text x="180.70925903320312" y="13.811201495773746" font-family="Helvetica, Segoe UI Emoji" font-size="16.34423937556029px" fill="#1e1e1e" text-anchor="middle" style="white-space: pre;" direction="ltr" dominant-baseline="alphabetic">POST /api/v1/spoti/callback (Envía AUTH_CODE,</text><text x="180.70925903320312" y="32.60707677766808" font-family="Helvetica, Segoe UI Emoji" font-size="16.34423937556029px" fill="#1e1e1e" text-anchor="middle" style="white-space: pre;" direction="ltr" dominant-baseline="alphabetic">Client ID, Client Secret)</text></g><g mask="url(#mask-MaMvzjumia92v_PStxhDl)" stroke-linecap="round"><g transform="translate(1341.9672963231887 702.5871435393673) rotate(0 -467.85385212541314 0)"><path d="M1.02 -1.16 C-155.07 -1.15, -779.83 0.93, -935.92 1.05 M0.1 0.85 C-156.23 0.46, -780.94 -0.49, -936.98 -0.51" stroke="#1e1e1e" stroke-width="2" fill="none"></path></g><g transform="translate(1341.9672963231887 702.5871435393673) rotate(0 -467.85385212541314 0)"><path d="M-913.48 -9.04 C-923.67 -6.17, -928.31 -2.46, -936.98 -0.51 M-913.48 -9.04 C-920.46 -6.96, -926.41 -4.02, -936.98 -0.51" stroke="#1e1e1e" stroke-width="2" fill="none"></path></g><g transform="translate(1341.9672963231887 702.5871435393673) rotate(0 -467.85385212541314 0)"><path d="M-913.5 8.06 C-923.82 4.87, -928.46 2.52, -936.98 -0.51 M-913.5 8.06 C-920.5 5.57, -926.45 3.94, -936.98 -0.51" stroke="#1e1e1e" stroke-width="2" fill="none"></path></g></g><mask id="mask-MaMvzjumia92v_PStxhDl"><rect x="0" y="0" fill="#fff" width="2377.675000574015" height="802.5871435393673"></rect><rect x="710.2109173423069" y="693.1892058984201" fill="#000" width="327.8050537109375" height="18.79587528189433" opacity="1"></rect></mask><g transform="translate(710.2109173423069 693.1892058984201) rotate(0 163.77767682289232 9.346378630054062)"><text x="163.90252685546875" y="13.811201495773746" font-family="Helvetica, Segoe UI Emoji" font-size="16.34423937556029px" fill="#1e1e1e" text-anchor="middle" style="white-space: pre;" direction="ltr" dominant-baseline="alphabetic">Solicita Tokens (AUTH_CODE, Client Secret)</text></g><g mask="url(#mask-lvPBp6N8xvGeD5TWQKPVP)" stroke-linecap="round"><g transform="translate(403.1950471894447 757.7489514318833) rotate(0 467.85385212541337 0)"><path d="M0.2 -0.4 C156.23 -0.55, 780.15 0.12, 935.92 0.14" stroke="#1e1e1e" stroke-width="2.5" fill="none" stroke-dasharray="1.5 8"></path></g><g transform="translate(403.1950471894447 757.7489514318833) rotate(0 467.85385212541337 0)"><path d="M912.42 8.68 C918.32 6.59, 925.86 2.38, 935.92 0.14" stroke="#1e1e1e" stroke-width="2.5" fill="none" stroke-dasharray="1.5 6"></path></g><g transform="translate(403.1950471894447 757.7489514318833) rotate(0 467.85385212541337 0)"><path d="M912.44 -8.42 C918.48 -5.69, 926.01 -5.06, 935.92 0.14" stroke="#1e1e1e" stroke-width="2.5" fill="none" stroke-dasharray="1.5 6"></path></g></g><mask id="mask-lvPBp6N8xvGeD5TWQKPVP"><rect x="0" y="0" fill="#fff" width="1438.9027514402712" height="857.7489514318833"></rect><rect x="693.499125144936" y="748.3510137909361" fill="#000" width="355.09954833984375" height="18.79587528189433" opacity="1"></rect></mask><g transform="translate(693.4991251449364 748.3510137909361) rotate(0 177.75839372053701 9.261114575232284)"><text x="177.54977416992188" y="13.811201495773746" font-family="Helvetica, Segoe UI Emoji" font-size="16.34423937556029px" fill="#1e1e1e" text-anchor="middle" style="white-space: pre;" direction="ltr" dominant-baseline="alphabetic">Devuelve Tokens (Access Token, Refresh Token)</text></g><g mask="url(#mask-iGnI2vFPeyqBMOeUOhqL7)" stroke-linecap="round"><g transform="translate(1344.010326245134 812.4000018439128) rotate(0 34.06155958392719 10.406749369636316)"><path d="M-0.86 -0.27 C9.32 -1.83, 50.97 -14.34, 61.32 -9.18 C71.67 -4.02, 71.43 25.6, 61.24 30.71 C51.05 35.81, 10.12 22.84, 0.18 21.45 M0.88 -1.46 C10.85 -3.39, 50.24 -16.57, 60.12 -11.03 C70.01 -5.49, 70.21 26.19, 60.18 31.79 C50.16 37.39, 9.94 24.58, -0.02 22.56" stroke="#1e1e1e" stroke-width="2" fill="none"></path></g><g transform="translate(1344.010326245134 812.4000018439128) rotate(0 34.06155958392719 10.406749369636316)"><path d="M24.86 20.07 C16.5 19.88, 9.92 20.54, -0.02 22.56 M24.86 20.07 C18.81 21.52, 11.47 20.64, -0.02 22.56" stroke="#1e1e1e" stroke-width="2" fill="none"></path></g><g transform="translate(1344.010326245134 812.4000018439128) rotate(0 34.06155958392719 10.406749369636316)"><path d="M20.64 36.64 C13.6 31.22, 8.36 26.61, -0.02 22.56 M20.64 36.64 C15.81 33.74, 9.59 28.51, -0.02 22.56" stroke="#1e1e1e" stroke-width="2" fill="none"></path></g></g><mask id="mask-iGnI2vFPeyqBMOeUOhqL7"><rect x="0" y="0" fill="#fff" width="1505.8119813839712" height="953.2606002828136"></rect><rect x="1330.7899493411105" y="795.4269287306632" fill="#000" width="164.40516662597656" height="56.38762584568299" opacity="1"></rect></mask><g transform="translate(1330.7899493411105 795.4269287306632) rotate(0 47.28193648795059 27.379822482885913)"><text x="82.20258331298828" y="13.811201495773746" font-family="Helvetica, Segoe UI Emoji" font-size="16.34423937556029px" fill="#1e1e1e" text-anchor="middle" style="white-space: pre;" direction="ltr" dominant-baseline="alphabetic">Guarda Access Token,</text><text x="82.20258331298828" y="32.60707677766808" font-family="Helvetica, Segoe UI Emoji" font-size="16.34423937556029px" fill="#1e1e1e" text-anchor="middle" style="white-space: pre;" direction="ltr" dominant-baseline="alphabetic">Refresh Token y fecha</text><text x="82.20258331298828" y="51.4029520595624" font-family="Helvetica, Segoe UI Emoji" font-size="16.34423937556029px" fill="#1e1e1e" text-anchor="middle" style="white-space: pre;" direction="ltr" dominant-baseline="alphabetic">de expiración en la DB</text></g><g mask="url(#mask-vg8BCmAPcZP4XQoM-9sAC)" stroke-linecap="round"><g transform="translate(1341.9672963231887 898.7180160460907) rotate(0 -290.11024891619536 0)"><path d="M-0.56 -0.45 C-97.32 -0.54, -484.55 -0.23, -581.06 0" stroke="#1e1e1e" stroke-width="2.5" fill="none" stroke-dasharray="1.5 8"></path></g><g transform="translate(1341.9672963231887 898.7180160460907) rotate(0 -290.11024891619536 0)"><path d="M-557.58 -8.58 C-564.4 -7.86, -569.76 -3.23, -581.06 0" stroke="#1e1e1e" stroke-width="2.5" fill="none" stroke-dasharray="1.5 6"></path></g><g transform="translate(1341.9672963231887 898.7180160460907) rotate(0 -290.11024891619536 0)"><path d="M-557.56 8.52 C-564.46 4.79, -569.82 4.97, -581.06 0" stroke="#1e1e1e" stroke-width="2.5" fill="none" stroke-dasharray="1.5 6"></path></g></g><mask id="mask-vg8BCmAPcZP4XQoM-9sAC"><rect x="0" y="0" fill="#fff" width="2022.187794155579" height="998.7180160460907"></rect><rect x="981.9134438913679" y="889.3200784051436" fill="#000" width="139.88720703125" height="18.79587528189433" opacity="1"></rect></mask><g transform="translate(981.9134438913679 889.3200784051436) rotate(0 69.24302916899387 9.165992735363432)"><text x="69.943603515625" y="13.811201495773746" font-family="Helvetica, Segoe UI Emoji" font-size="16.34423937556029px" fill="#1e1e1e" text-anchor="middle" style="white-space: pre;" direction="ltr" dominant-baseline="alphabetic">Respuesta de éxito</text></g><g mask="url(#mask-0zh9B4KIa39FV1A4d0RqK)" stroke-linecap="round"><g transform="translate(757.6607386469086 953.3690664581204) rotate(0 34.30620067447808 11.054160153735552)"><path d="M0.6 0.96 C10.98 -0.81, 51.24 -15.64, 61.44 -10.58 C71.63 -5.52, 71.73 25.78, 61.75 31.32 C51.77 36.85, 11.68 24.33, 1.55 22.63 M-0.55 0.41 C9.72 -1.22, 50.04 -14.89, 60.29 -9.5 C70.55 -4.12, 70.66 27.68, 60.96 32.72 C51.25 37.75, 12.33 22.58, 2.07 20.7" stroke="#1e1e1e" stroke-width="2" fill="none"></path></g><g transform="translate(757.6607386469086 953.3690664581204) rotate(0 34.30620067447808 11.054160153735552)"><path d="M27 18.89 C22.87 18.82, 14.08 19.76, 2.07 20.7 M27 18.89 C19.12 19.47, 11.78 20.43, 2.07 20.7" stroke="#1e1e1e" stroke-width="2" fill="none"></path></g><g transform="translate(757.6607386469086 953.3690664581204) rotate(0 34.30620067447808 11.054160153735552)"><path d="M22.33 35.34 C19.27 31.47, 11.56 28.63, 2.07 20.7 M22.33 35.34 C15.83 30.72, 9.96 26.53, 2.07 20.7" stroke="#1e1e1e" stroke-width="2" fill="none"></path></g></g><mask id="mask-0zh9B4KIa39FV1A4d0RqK"><rect x="0" y="0" fill="#fff" width="919.4623937857459" height="1094.2296648970212"></rect><rect x="738.2693764422365" y="935.9800580511213" fill="#000" width="177.0989990234375" height="56.38762584568299" opacity="1"></rect></mask><g transform="translate(738.2693764422365 935.9800580511213) rotate(0 53.697562879150155 28.443168560734648)"><text x="88.54949951171875" y="13.811201495773746" font-family="Helvetica, Segoe UI Emoji" font-size="16.34423937556029px" fill="#1e1e1e" text-anchor="middle" style="white-space: pre;" direction="ltr" dominant-baseline="alphabetic">Marca la conexión como</text><text x="88.54949951171875" y="32.60707677766808" font-family="Helvetica, Segoe UI Emoji" font-size="16.34423937556029px" fill="#1e1e1e" text-anchor="middle" style="white-space: pre;" direction="ltr" dominant-baseline="alphabetic">exitosa en</text><text x="88.54949951171875" y="51.4029520595624" font-family="Helvetica, Segoe UI Emoji" font-size="16.34423937556029px" fill="#1e1e1e" text-anchor="middle" style="white-space: pre;" direction="ltr" dominant-baseline="alphabetic">sessionStorage</text></g><g mask="url(#mask-KagMX0FCHx9SEOnc9yaXx)" stroke-linecap="round"><g transform="translate(755.6034258321661 1039.687080660298) rotate(0 -361.10654162518426 0)"><path d="M-0.05 0.16 C-120.27 0.5, -601.31 1.26, -721.69 1.18 M-1.54 -0.8 C-121.84 -0.69, -602.1 -0.6, -722.36 -0.32" stroke="#1e1e1e" stroke-width="2" fill="none"></path></g><g transform="translate(755.6034258321661 1039.687080660298) rotate(0 -361.10654162518426 0)"><path d="M-698.88 -8.9 C-705 -5.72, -709.63 -4.45, -722.36 -0.32 M-698.88 -8.9 C-704.73 -7.4, -712.18 -4.02, -722.36 -0.32" stroke="#1e1e1e" stroke-width="2" fill="none"></path></g><g transform="translate(755.6034258321661 1039.687080660298) rotate(0 -361.10654162518426 0)"><path d="M-698.86 8.2 C-704.87 6.77, -709.49 3.44, -722.36 -0.32 M-698.86 8.2 C-704.78 4.98, -712.24 3.64, -722.36 -0.32" stroke="#1e1e1e" stroke-width="2" fill="none"></path></g></g><mask id="mask-KagMX0FCHx9SEOnc9yaXx"><rect x="0" y="0" fill="#fff" width="1577.8165090825346" height="1139.687080660298"></rect><rect x="331.8296860258297" y="1030.2891430193508" fill="#000" width="125.33439636230469" height="18.79587528189433" opacity="1"></rect></mask><g transform="translate(331.8296860258297 1030.2891430193508) rotate(0 62.56749379550547 9.590050225260882)"><text x="62.667198181152344" y="13.811201495773746" font-family="Helvetica, Segoe UI Emoji" font-size="16.34423937556029px" fill="#1e1e1e" text-anchor="middle" style="white-space: pre;" direction="ltr" dominant-baseline="alphabetic">Redirige a /levels</text></g></svg>